{
  "accessors": [
    {
      "bufferView": 2,
      "componentType": 5126,
      "count": 641,
      "max": [
        20.000370025634766,
        20.0003604888916,
        1.7632700204849243
      ],
      "min": [
        -20.000370025634766,
        -20.0003604888916,
        -23.04306983947754
      ],
      "type": "VEC3"
    },
    {
      "bufferView": 2,
      "byteOffset": 7692,
      "componentType": 5126,
      "count": 641,
      "max": [
        0.9999406933784485,
        0.9999446272850037,
        1.0
      ],
      "min": [
        -0.9999406933784485,
        -0.9999446272850037,
        -0.020510343834757805
      ],
      "type": "VEC3"
    },
    {
      "bufferView": 3,
      "componentType": 5126,
      "count": 641,
      "max": [
        1.0,
        1.0,
        0.9993970394134521,
        1.0
      ],
      "min": [
        -0.9999954104423523,
        -1.0,
        -0.9999330639839172,
        -1.0
      ],
      "type": "VEC4"
    },
    {
      "bufferView": 1,
      "componentType": 5126,
      "count": 641,
      "max": [
        0.9643499851226807,
        0.9801300168037415
      ],
      "min": [
        0.013690000399947166,
        0.027550000697374344
      ],
      "type": "VEC2"
    },
    {
      "bufferView": 1,
      "byteOffset": 5128,
      "componentType": 5126,
      "count": 641,
      "max": [
        0.9643499851226807,
        0.9801300168037415
      ],
      "min": [
        0.013690000399947166,
        0.027550000697374344
      ],
      "type": "VEC2"
    },
    {
      "bufferView": 0,
      "componentType": 5125,
      "count": 2412,
      "type": "SCALAR"
    }
  ],
  "asset": {
    "extras": {
      "author": "ramonscortanu (https://sketchfab.com/ramonscortanu)",
      "license": "CC-BY-4.0 (http://creativecommons.org/licenses/by/4.0/)",
      "source": "https://sketchfab.com/3d-models/gothic-church-ceiling-53ca14ca9cc245bdab31556656e0aab5",
      "title": "Gothic church ceiling"
    },
    "generator": "Sketchfab-12.66.0",
    "version": "2.0"
  },
  "bufferViews": [
    {
      "buffer": 0,
      "byteLength": 9648,
      "name": "floatBufferViews",
      "target": 34963
    },
    {
      "buffer": 0,
      "byteLength": 10256,
      "byteOffset": 9648,
      "byteStride": 8,
      "name": "floatBufferViews",
      "target": 34962
    },
    {
      "buffer": 0,
      "byteLength": 15384,
      "byteOffset": 19904,
      "byteStride": 12,
      "name": "floatBufferViews",
      "target": 34962
    },
    {
      "buffer": 0,
      "byteLength": 10256,
      "byteOffset": 35288,
      "byteStride": 16,
      "name": "floatBufferViews",
      "target": 34962
    }
  ],
  "buffers": [
    {
      "byteLength": 45544,
      "uri": "scene.bin"
    }
  ],
  "images": [
    {
      "uri": "textures/Material.002_baseColor.png"
    },
    {
      "uri": "textures/Material.002_normal.png"
    }
  ],
  "materials": [
    {
      "doubleSided": true,
      "name": "Material.002",
      "normalTexture": {
        "index": 1
      },
      "pbrMetallicRoughness": {
        "baseColorTexture": {
          "index": 0
        },
        "metallicFactor": 0.0,
        "roughnessFactor": 0.35
      }
    }
  ],
  "meshes": [
    {
      "name": "Circle.014_0",
      "primitives": [
        {
          "attributes": {
            "NORMAL": 1,
            "POSITION": 0,
            "TANGENT": 2,
            "TEXCOORD_0": 3,
            "TEXCOORD_1": 4
          },
          "indices": 5,
          "material": 0,
          "mode": 4
        }
      ]
    }
  ],
  "nodes": [
    {
      "children": [
        1
      ],
      "matrix": [
        1.0,
        0.0,
        0.0,
        0.0,
        0.0,
        2.220446049250313e-16,
        -1.0,
        0.0,
        0.0,
        1.0,
        2.220446049250313e-16,
        0.0,
        0.0,
        0.0,
        0.0,
        1.0
      ],
      "name": "Sketchfab_model"
    },
    {
      "children": [
        2
      ],
      "name": "Root"
    },
    {
      "children": [
        3
      ],
      "matrix": [
        0.06250000000000001,
        0.0,
        0.0,
        0.0,
        0.0,
        0.06250000000000001,
        0.0,
        0.0,
        0.0,
        0.0,
        0.06250000000000001,
        0.0,
        0.0,
        0.0,
        1.4333699999999998,
        1.0
      ],
      "name": "Circle.014"
    },
    {
      "mesh": 0,
      "name": "Circle.014_0"
    }
  ],
  "samplers": [
    {
      "magFilter": 9729,
      "minFilter": 9987,
      "wrapS": 10497,
      "wrapT": 10497
    }
  ],
  "scene": 0,
  "scenes": [
    {
      "name": "Sketchfab_Scene",
      "nodes": [
        0
      ]
    }
  ],
  "textures": [
    {
      "sampler": 0,
      "source": 0
    },
    {
      "sampler": 0,
      "source": 1
    }
  ]
}
